<?xml version="1.0" standalone="no"?><!DOCTYPE svg PUBLIC "-//W3C//DTD SVG 1.1//EN" "http://www.w3.org/Graphics/SVG/1.1/DTD/svg11.dtd"><svg t="1539308380063" class="icon" style="" viewBox="0 0 1024 1024" version="1.1" xmlns="http://www.w3.org/2000/svg" p-id="296163" xmlns:xlink="http://www.w3.org/1999/xlink" width="200" height="200"><defs><style type="text/css"></style></defs><path d="M512 42.666667C253.866667 42.666667 42.666667 253.866667 42.666667 512s211.2 469.333333 469.333333 469.333333 469.333333-211.2 469.333333-469.333333S770.133333 42.666667 512 42.666667z m174.933333 264.533333c32 0 59.733333 25.6 59.733334 59.733333S721.066667 426.666667 686.933333 426.666667c-32 0-59.733333-25.6-59.733333-59.733334s27.733333-59.733333 59.733333-59.733333z m-352 0c32 0 59.733333 25.6 59.733334 59.733333S369.066667 426.666667 334.933333 426.666667 277.333333 396.8 277.333333 364.8s25.6-57.6 57.6-57.6z m177.066667 469.333333c-115.2 0-211.2-72.533333-249.6-174.933333h499.2c-36.266667 100.266667-134.4 174.933333-249.6 174.933333z" p-id="296164" fill="#bfbfbf"></path></svg>