<?xml version="1.0" standalone="no"?><!DOCTYPE svg PUBLIC "-//W3C//DTD SVG 1.1//EN" "http://www.w3.org/Graphics/SVG/1.1/DTD/svg11.dtd"><svg t="1537340776322" class="icon" style="" viewBox="0 0 1024 1024" version="1.1" xmlns="http://www.w3.org/2000/svg" p-id="194727" xmlns:xlink="http://www.w3.org/1999/xlink" width="200" height="200"><defs><style type="text/css"></style></defs><path d="M831.616 660.48c-16.512-16.64-45.376-16.704-62.016 0-17.024 17.216-16.96 44.928 0.064 61.952 68.864 68.864 106.752 160.448 106.752 257.728 0 24.128 19.712 43.84 43.84 43.84 24.192 0 43.904-19.712 43.904-43.84C964.096 859.392 917.056 745.856 831.616 660.48z" p-id="194728" fill="#8a8a8a"></path><path d="M512 0C342.144 0 203.904 138.176 203.904 308.032c0 103.36 50.624 197.44 134.464 254.4C284.16 585.088 234.24 618.496 192.256 660.48c-85.376 85.376-132.352 198.848-132.352 319.68C59.904 1004.288 79.552 1024 103.68 1024c24.192 0 43.904-19.712 43.904-43.84 0-97.344 37.888-188.928 106.688-257.728 66.112-66.176 153.984-104 246.144-106.624L512 616.064c169.792 0 308.032-138.176 308.032-308.032C820.032 138.176 681.792 0 512 0zM512 87.744c121.472 0 220.288 98.816 220.288 220.288 0 119.552-97.28 218.368-212.992 220.608C516.8 528.256 514.496 528 511.936 528L501.888 528.192C384 522.816 291.712 426.112 291.712 308.032 291.712 186.56 390.528 87.744 512 87.744z" p-id="194729" fill="#8a8a8a"></path></svg>