<?xml version="1.0" standalone="no"?><!DOCTYPE svg PUBLIC "-//W3C//DTD SVG 1.1//EN" "http://www.w3.org/Graphics/SVG/1.1/DTD/svg11.dtd"><svg t="1536641054670" class="icon" style="" viewBox="0 0 1024 1024" version="1.1" xmlns="http://www.w3.org/2000/svg" p-id="43609" xmlns:xlink="http://www.w3.org/1999/xlink" width="200" height="200"><defs><style type="text/css"></style></defs><path d="M479.232 447.488c0 0 96.128-86.08 96.128-192.192S479.232 63.04 479.232 63.04 383.04 149.12 383.04 255.232 479.232 447.488 479.232 447.488zM479.232 160.512c17.6 27.008 33.28 60.928 33.28 94.784 0 33.792-15.616 67.712-33.28 94.784-17.6-27.008-33.28-60.992-33.28-94.784C445.888 221.44 461.504 187.584 479.232 160.512zM671.552 639.68c0 0 96.128-86.08 96.128-192.192s-96.128-192.192-96.128-192.192S575.36 341.312 575.36 447.488 671.552 639.68 671.552 639.68zM671.552 352.704c17.728 27.072 33.28 60.928 33.28 94.72 0 33.792-15.616 67.712-33.28 94.784-17.6-27.008-33.28-60.992-33.28-94.784C638.208 413.696 653.824 379.84 671.552 352.704zM447.168 479.488c0 0-86.08-96.128-192.32-96.128S62.592 479.488 62.592 479.488s86.08 96.128 192.32 96.128S447.168 479.488 447.168 479.488zM254.848 446.208c33.792 0 67.712 15.616 94.784 33.28-27.136 17.728-60.992 33.28-94.784 33.28-33.792 0-67.712-15.616-94.784-33.28C187.2 461.824 221.056 446.208 254.848 446.208zM639.488 671.744c0 0-86.08-96.128-192.32-96.128-106.176 0-192.32 96.128-192.32 96.128s86.08 96.128 192.32 96.128C553.344 767.808 639.488 671.744 639.488 671.744zM447.168 638.4c33.792 0 67.712 15.616 94.784 33.28-27.136 17.728-60.992 33.28-94.784 33.28-33.792 0-67.712-15.616-94.784-33.28C379.52 654.016 413.376 638.4 447.168 638.4zM639.488 767.808c-106.176 0-192.32 96.128-192.32 96.128s86.08 96.128 192.32 96.128 192.32-96.128 192.32-96.128S745.664 767.808 639.488 767.808zM639.488 897.216c-33.792 0-67.712-15.616-94.784-33.28 27.136-17.728 60.992-33.28 94.784-33.28 33.792 0 67.712 15.616 94.784 33.28C707.136 881.6 673.28 897.216 639.488 897.216zM863.808 447.488c0 0-96.128 86.08-96.128 192.192s96.128 192.192 96.128 192.192S960 745.856 960 639.68 863.808 447.488 863.808 447.488zM863.808 734.4c-17.728-27.072-33.28-60.928-33.28-94.72 0-33.792 15.616-67.648 33.28-94.72 17.728 27.072 33.28 60.928 33.28 94.72C897.152 673.472 881.536 707.328 863.808 734.4zM316.288 355.968l-268.224-268.16 45.312-45.312 268.224 268.16L316.288 355.968zM102.528 403.584 0 301.056l45.312-45.312L147.84 358.272 102.528 403.584zM360.384 147.84 257.856 45.312l45.312-45.312 102.528 102.528L360.384 147.84z" fill="#2BA245" p-id="43610"></path></svg>