<?xml version="1.0" standalone="no"?><!DOCTYPE svg PUBLIC "-//W3C//DTD SVG 1.1//EN" "http://www.w3.org/Graphics/SVG/1.1/DTD/svg11.dtd"><svg t="1537362846206" class="icon" style="" viewBox="0 0 1024 1024" version="1.1" xmlns="http://www.w3.org/2000/svg" p-id="201210" xmlns:xlink="http://www.w3.org/1999/xlink" width="200" height="200"><defs><style type="text/css"></style></defs><path d="M382.248495 1024h-336.288999a42.036125 42.036125 0 0 1-42.036124-42.036125v-336.288998a42.036125 42.036125 0 0 1 84.072249 0v294.252873h294.252874a42.036125 42.036125 0 0 1 0 84.07225z" p-id="201211" fill="#8a8a8a"></path><path d="M68.378763 1001.020252a42.036125 42.036125 0 0 1-29.705528-71.741653l290.889983-290.889984a42.036125 42.036125 0 1 1 59.411057 59.411057l-290.889984 291.450465a42.036125 42.036125 0 0 1-29.705528 11.770115zM978.040504 420.361248a42.036125 42.036125 0 0 1-42.036125-42.036125V84.07225h-295.934319a42.036125 42.036125 0 0 1 0-84.07225h336.288999a42.036125 42.036125 0 0 1 42.036124 42.036125v336.288998a42.036125 42.036125 0 0 1-40.354679 42.036125z" p-id="201212" fill="#8a8a8a"></path><path d="M664.170772 397.941981a42.036125 42.036125 0 0 1-29.705528-71.741653l291.450465-291.450465a42.036125 42.036125 0 1 1 59.411056 59.411057l-291.450465 291.450465a42.036125 42.036125 0 0 1-29.705528 12.330596z" p-id="201213" fill="#8a8a8a"></path></svg>