<?xml version="1.0" standalone="no"?><!DOCTYPE svg PUBLIC "-//W3C//DTD SVG 1.1//EN" "http://www.w3.org/Graphics/SVG/1.1/DTD/svg11.dtd"><svg t="1539168611555" class="icon" style="" viewBox="0 0 1024 1024" version="1.1" xmlns="http://www.w3.org/2000/svg" p-id="246203" xmlns:xlink="http://www.w3.org/1999/xlink" width="200" height="200"><defs><style type="text/css"></style></defs><path d="M950.53056683 212.76802162L73.46826809 212.76802162c-39.4509733 0-71.37477973-31.95873507-71.37477974-71.37477973s31.92380643-71.37477973 71.37477974-71.37477974l877.06229874 0c39.4509733 0 71.37477973 31.95873507 71.37477973 71.37477974S989.98270521 212.76802162 950.53056683 212.76802162z" p-id="246204" fill="#707070"></path><path d="M950.53056683 583.37477973L73.46826809 583.37477973c-39.4509733 0-71.37477973-31.95873507-71.37477974-71.37477973s31.92380643-71.37477973 71.37477974-71.37477973l877.06229874 0c39.4509733 0 71.37477973 31.95873507 71.37477973 71.37477973S989.98270521 583.37477973 950.53056683 583.37477973z" p-id="246205" fill="#707070"></path><path d="M950.53056683 953.98153785L73.46826809 953.98153785c-39.4509733 0-71.37477973-31.95873507-71.37477974-71.37477974 0-39.41604466 31.92380643-71.37477973 71.37477974-71.37477973l877.06229874 0c39.4509733 0 71.37477973 31.95873507 71.37477973 71.37477973C1021.90651165 922.02280277 989.98270521 953.98153785 950.53056683 953.98153785z" p-id="246206" fill="#707070"></path></svg>