<?xml version="1.0" standalone="no"?><!DOCTYPE svg PUBLIC "-//W3C//DTD SVG 1.1//EN" "http://www.w3.org/Graphics/SVG/1.1/DTD/svg11.dtd"><svg t="1536643145116" class="icon" style="" viewBox="0 0 1024 1024" version="1.1" xmlns="http://www.w3.org/2000/svg" p-id="86588" xmlns:xlink="http://www.w3.org/1999/xlink" width="200" height="200"><defs><style type="text/css"></style></defs><path d="M335.728518 290.387337l31.07654-182.383626h382.598053l31.07654 182.383626h97.30523l-60.115273 684.702775H297.010206L234.347676 290.387337z" fill="#FDD545" p-id="86589"></path><path d="M989.864204 257.272992H34.133248a30.057637 30.057637 0 0 1-31.585991-31.585991 30.057637 30.057637 0 0 1 31.585991-32.095443h955.730956a30.057637 30.057637 0 0 1 31.585991 32.095443 30.057637 30.057637 0 0 1-31.585991 31.585991z m-477.865478 605.228345a30.057637 30.057637 0 0 1-31.585991-32.095442V384.635859a31.585991 31.585991 0 1 1 63.171982 0v445.770036a30.057637 30.057637 0 0 1-31.585991 32.095442z m158.948859 0a30.567088 30.567088 0 0 1-31.585991-32.095442V384.635859a32.095443 32.095443 0 0 1 63.681433 0v445.770036a30.567088 30.567088 0 0 1-32.095442 32.095442z m-317.897717 0a30.567088 30.567088 0 0 1-32.095443-32.095442V384.635859a30.057637 30.057637 0 0 1 32.095443-31.585991 29.548185 29.548185 0 0 1 31.585991 31.585991v445.770036a30.567088 30.567088 0 0 1-31.585991 32.095442z" fill="#333333" p-id="86590"></path><path d="M670.947585 864.539143a32.604894 32.604894 0 0 1-34.133249-34.133248V384.635859a34.6427 34.6427 0 0 1 68.775949 0v445.770036a32.604894 32.604894 0 0 1-34.6427 34.133248z m0-509.451469a27.510379 27.510379 0 0 0-29.038734 29.548185v445.770036a29.548185 29.548185 0 1 0 58.586919 0V384.635859a28.019831 28.019831 0 0 0-29.548185-29.548185z m-158.948859 509.451469a32.604894 32.604894 0 0 1-34.133248-34.133248V384.635859a34.133248 34.133248 0 0 1 68.266497 0v445.770036a32.604894 32.604894 0 0 1-34.133249 34.133248z m0-509.451469a28.019831 28.019831 0 0 0-29.548185 29.548185v445.770036a29.548185 29.548185 0 0 0 59.096371 0V384.635859a28.019831 28.019831 0 0 0-29.548186-29.548185z m-158.948858 509.451469a32.604894 32.604894 0 0 1-34.6427-34.133248V384.635859a32.604894 32.604894 0 0 1 34.6427-34.133248 32.604894 32.604894 0 0 1 34.133248 34.133248v445.770036a32.604894 32.604894 0 0 1-34.133248 34.133248z m0-509.451469a28.019831 28.019831 0 0 0-29.548185 29.548185v445.770036a29.548185 29.548185 0 1 0 58.586919 0V384.635859a27.510379 27.510379 0 0 0-29.038734-29.548185z m636.814336-95.267425H34.133248a32.604894 32.604894 0 0 1-31.585991-34.133248 32.604894 32.604894 0 0 1 34.133249-34.6427h953.183698a32.604894 32.604894 0 0 1 34.133249 34.6427 32.604894 32.604894 0 0 1-34.133249 34.133248zM34.133248 196.138816a27.510379 27.510379 0 0 0-29.038733 29.548185 27.510379 27.510379 0 0 0 29.038733 31.585991h955.730956a27.510379 27.510379 0 0 0 31.585991-31.585991 27.510379 27.510379 0 0 0-29.038733-29.548185z" fill="#333333" p-id="86591"></path><path d="M801.876612 1021.450195H222.12084a65.209788 65.209788 0 0 1-63.681433-57.058564L104.437551 231.800418a38.20886 38.20886 0 0 1 28.529282-35.152151 34.6427 34.6427 0 0 1 35.152152 29.038734L222.12084 957.768762h576.189612L855.878468 228.74371a32.095443 32.095443 0 0 1 63.681434 6.113417l-57.058565 729.534504a60.115273 60.115273 0 0 1-60.624725 57.058564z" fill="#333333" p-id="86592"></path><path d="M801.876612 1023.997453H222.12084a67.757045 67.757045 0 0 1-66.738142-59.605822l-50.945147-732.591213a40.246666 40.246666 0 0 1 30.567088-37.699408 37.189957 37.189957 0 0 1 37.699409 31.076539l51.96405 730.043955h571.604548l57.058565-726.987246a31.07654 31.07654 0 0 1 38.20886-30.567088 29.038734 29.038734 0 0 1 23.434767 10.698481 33.114345 33.114345 0 0 1 7.132321 27.000928l-57.568016 729.025052a62.153079 62.153079 0 0 1-62.662531 59.605822zM132.966833 199.195524a34.6427 34.6427 0 0 0-25.982025 32.604894l54.001856 732.081761a62.662531 62.662531 0 0 0 61.134176 57.568016h579.755772a57.568016 57.568016 0 0 0 58.077468-54.511307l59.605822-732.081761a28.529282 28.529282 0 0 0-5.603967-23.434767 27.510379 27.510379 0 0 0-20.378058-9.170127 30.567088 30.567088 0 0 0-24.963122 4.075612 24.963122 24.963122 0 0 0-9.170127 20.378059l-58.586919 733.610115H220.083035v-2.547257L165.571727 225.687001a32.095443 32.095443 0 0 0-32.604894-26.491477z" fill="#333333" p-id="86593"></path><path d="M811.55619 257.272992H212.441263L282.745565 47.378987A63.681434 63.681434 0 0 1 343.37029 2.547257h337.256873a61.134176 61.134176 0 0 1 60.624724 44.83173z m-509.451469-63.681434h419.788011l-41.265569-127.362867H343.37029z" fill="#333333" p-id="86594"></path><path d="M814.612899 259.820249H209.384554v-3.56616L280.198308 46.360084A67.247594 67.247594 0 0 1 343.37029 2.547257h337.256873a64.190885 64.190885 0 0 1 63.171982 46.360084zM216.007423 257.272992h591.982607L738.70463 47.888438A59.09637 59.09637 0 0 0 680.627163 5.094515H343.37029A61.134176 61.134176 0 0 0 285.292823 47.888438z m509.451469-58.586919H298.538561v-3.56616l42.793923-131.438479h341.332484z m-420.297462-7.641772h413.674593l-39.737215-122.268353H344.898645z" fill="#333333" p-id="86595"></path></svg>