<?xml version="1.0" standalone="no"?><!DOCTYPE svg PUBLIC "-//W3C//DTD SVG 1.1//EN" "http://www.w3.org/Graphics/SVG/1.1/DTD/svg11.dtd"><svg t="1540965013166" class="icon" style="" viewBox="0 0 1024 1024" version="1.1" xmlns="http://www.w3.org/2000/svg" p-id="13048" xmlns:xlink="http://www.w3.org/1999/xlink" width="200" height="200"><defs><style type="text/css"></style></defs><path d="M653.824 189.653333a352 352 0 0 0-247.808-13.824 351.445333 351.445333 0 0 0-245.845333 358.826667l-106.154667 6.997333A457.941333 457.941333 0 0 1 729.514667 108.842667L831.317333 0l27.178667 301.824-319.658667 10.666667z m-4.010667 760.021334c-44.8 13.994667-91.306667 21.162667-137.472 21.162666-75.349333 0-150.186667-19.498667-217.685333-55.850666L192.682667 1024l-27.008-301.824 319.488-10.666667-114.816 122.837334a352 352 0 0 0 493.482666-345.002667l105.984-6.997333a457.770667 457.770667 0 0 1-320 467.328z" p-id="13049" fill="#8a8a8a"></path></svg>