<?xml version="1.0" standalone="no"?><!DOCTYPE svg PUBLIC "-//W3C//DTD SVG 1.1//EN" "http://www.w3.org/Graphics/SVG/1.1/DTD/svg11.dtd"><svg t="1539229313807" class="icon" style="" viewBox="0 0 1024 1024" version="1.1" xmlns="http://www.w3.org/2000/svg" p-id="295218" xmlns:xlink="http://www.w3.org/1999/xlink" width="200" height="200"><defs><style type="text/css"></style></defs><path d="M447.96918309250816 826.9548712314122L447.96918309250816 337.3652445976626c0-20.81828443968892-16.839462787430623-37.66747539741846-37.65774722711954-37.66747539741846-20.82801260998785 0-37.66747539741846 16.84919095772954-37.66747539741846 37.66747539741846l0 489.5896266337497c0 20.81828443968892 16.839462787430623 37.65774722711954 37.66747539741846 37.65774722711954C431.12972030507757 864.6126184585316 447.96918309250816 847.7731556711011 447.96918309250816 826.9548712314122zM372.64396046797003 73.73182949692898l301.3008904981521 0c20.81828443968892 0 37.65774722711954-16.839462787430623 37.65774722711954-37.65774722711954s-16.839462787430623-37.66747539741846-37.65774722711954-37.66747539741846L372.64396046797003-1.593393127609147c-20.81828443968892 0-37.65774722711954 16.84919095772954-37.65774722711954 37.66747539741846S351.82567602828135 73.73182949692898 372.64396046797003 73.73182949692898zM862.2433152720189 262.0400219731247c-20.82801260998785 0-37.65774722711954 16.839462787430623-37.65774722711954 37.65774722711954l0 564.9148492582877c0 41.59765619818217-33.72756642635584 75.32522262453803-75.32522262453803 75.32522262453803L297.32846601373103 939.9378410830698c-41.59765619818217 0-75.32522262453803-33.72756642635584-75.32522262453803-75.32522262453803l0-564.9148492582877c0-20.81828443968892-16.839462787430623-37.65774722711954-37.65774722711954-37.65774722711954-20.779371758493248 0-37.65774722711954 16.839462787430623-37.65774722711954 37.65774722711954l0 150.65044524907606 0 489.5896266337497c0 41.58792802788324 33.72756642635584 75.31549445423909 75.31549445423909 75.31549445423909l602.5823246557062 0c41.58792802788324 0 75.31549445423909-33.72756642635584 75.31549445423909-75.31549445423909L899.9010624991386 450.34821444932015 899.9010624991386 299.6977692002441C899.9010624991386 278.88921293085394 883.0518715414088 262.0400219731247 862.2433152720189 262.0400219731247zM975.2262851236765 111.38957672404848L71.35279814011705 111.38957672404848c-20.779371758493248 0-37.65774722711954 16.84919095772954-37.65774722711954 37.66747539741846s16.8783754686263 37.66747539741846 37.65774722711954 37.66747539741846l903.8734869835592 0c20.808556269390007 0 37.65774722711954-16.84919095772954 37.65774722711954-37.66747539741846S996.0348413930662 111.38957672404848 975.2262851236765 111.38957672404848zM673.9351227958234 826.9548712314122L673.9351227958234 337.3652445976626c0-20.81828443968892-16.839462787430623-37.66747539741846-37.66747539741846-37.66747539741846-20.81828443968892 0-37.65774722711954 16.84919095772954-37.65774722711954 37.66747539741846l0 489.5896266337497c0 20.81828443968892 16.839462787430623 37.65774722711954 37.65774722711954 37.65774722711954C657.0956600083928 864.6126184585316 673.9351227958234 847.7731556711011 673.9351227958234 826.9548712314122z" p-id="295219" fill="#515151"></path></svg>