<?xml version="1.0" standalone="no"?><!DOCTYPE svg PUBLIC "-//W3C//DTD SVG 1.1//EN" "http://www.w3.org/Graphics/SVG/1.1/DTD/svg11.dtd"><svg t="1537339301782" class="icon" style="" viewBox="0 0 1024 1024" version="1.1" xmlns="http://www.w3.org/2000/svg" p-id="191604" xmlns:xlink="http://www.w3.org/1999/xlink" width="200" height="200"><defs><style type="text/css"></style></defs><path d="M0.000512 511.487489c0 282.521317 229.034438 511.521622 511.487489 511.521621 282.521317 0 511.521622-229.034438 511.521621-511.521621S793.941051 0 511.488001 0 0.000512 229.034438 0.000512 511.487489z" fill="#EDEEF0" p-id="191605"></path><path d="M511.488001 747.792319a459.092874 459.092874 0 0 1 338.363394 148.206785c-18.431982 28.091705-158.788108 128.375338-337.271129 127.999872-178.517155-0.375466-327.645539-106.76896-339.45566-127.999872a459.092874 459.092874 0 0 1 338.363395-148.206785z" fill="#C4D8EA" p-id="191606"></path><path d="M511.488001 614.808985a81.851651 81.851651 0 0 1 81.851651 81.817518v81.851652a81.851651 81.851651 0 0 1-163.66917 0v-81.851652a81.851651 81.851651 0 0 1 81.817519-81.817518z" fill="#BBBBBB" p-id="191607"></path><path d="M265.967179 512.511487V314.811419c0-54.818079 55.500744-109.226557 111.479356-109.226558h268.117065c55.978611 0 111.445222 54.408479 111.445222 109.226558v197.700068H265.967179z" fill="#797979" p-id="191608"></path><path d="M225.075487 532.957334a71.611662 71.611662 0 1 0 143.18919 0 71.611662 71.611662 0 0 0-143.18919 0zM654.711324 532.957334a71.611662 71.611662 0 1 0 143.223323 0 71.611662 71.611662 0 0 0-143.223323 0z" fill="#BBBBBB" p-id="191609"></path><path d="M511.488001 277.196523a204.594995 204.594995 0 0 1 204.594995 204.594995v81.851652a204.594995 204.594995 0 1 1-409.189991 0v-81.851652a204.594995 204.594995 0 0 1 204.594996-204.594995z" fill="#F6F6F6" p-id="191610"></path><path d="M363.281215 340.752726v171.349162c0 103.594563 48.469285 192.85314 136.396664 256.136277-48.913018 0-106.56416-26.38504-144.622789-73.215927-29.79837-36.659163-48.127952-68.095932-48.127952-142.233457 0-22.664511-0.921599-68.505531 0.580266-86.80098 7.065593-84.548182 55.773811-125.235075 55.773811-125.235075z" fill="#EDEEF0" p-id="191611"></path><path d="M511.488001 323.686076c81.339652 0 147.251053-36.795697 147.251052-82.192984V138.035062c-67.856999 14.165319-116.940683 21.265045-147.251052 21.265045-81.305519 0-147.251053 36.795697-147.251053 82.192985 0 45.397288 65.945534 82.192984 147.251053 82.192984z" fill="#797979" p-id="191612"></path></svg>