<?xml version="1.0" standalone="no"?><!DOCTYPE svg PUBLIC "-//W3C//DTD SVG 1.1//EN" "http://www.w3.org/Graphics/SVG/1.1/DTD/svg11.dtd"><svg t="1544081579449" class="icon" style="" viewBox="0 0 1024 1024" version="1.1" xmlns="http://www.w3.org/2000/svg" p-id="2717" xmlns:xlink="http://www.w3.org/1999/xlink" width="200" height="200"><defs><style type="text/css"></style></defs><path d="M113.777778 0h796.444444a113.777778 113.777778 0 0 1 113.777778 113.777778v796.444444a113.777778 113.777778 0 0 1-113.777778 113.777778H113.777778a113.777778 113.777778 0 0 1-113.777778-113.777778V113.777778a113.777778 113.777778 0 0 1 113.777778-113.777778z m0 113.777778v796.444444h796.444444V113.777778H113.777778z m796.444444 227.555555v341.333334h113.777778V341.333333h-113.777778zM0 341.333333v341.333334h113.777778V341.333333H0z m682.666667-341.333333H341.333333v113.777778h341.333334V0z m0 910.222222H341.333333v113.777778h341.333334v-113.777778zM227.555556 455.111111h568.888888a56.888889 56.888889 0 0 1 0 113.777778H227.555556a56.888889 56.888889 0 1 1 0-113.777778z" fill="#df9c1f" p-id="2718"></path></svg>