<?xml version="1.0" standalone="no"?><!DOCTYPE svg PUBLIC "-//W3C//DTD SVG 1.1//EN" "http://www.w3.org/Graphics/SVG/1.1/DTD/svg11.dtd"><svg t="1544078506307" class="icon" style="" viewBox="0 0 1024 1024" version="1.1" xmlns="http://www.w3.org/2000/svg" p-id="1874" xmlns:xlink="http://www.w3.org/1999/xlink" width="200" height="200"><defs><style type="text/css"></style></defs><path d="M894.428969 894.295939 894.428969 835.365782 835.499835 835.365782Z" p-id="1875" fill="#bfbfbf"></path><path d="M187.258894 187.125865 334.587358 187.126888 334.587358 334.453305 393.517515 393.383462 393.517515 128.196731 128.32976 128.196731Z" p-id="1876" fill="#bfbfbf"></path><path d="M894.426923 658.57224 835.496765 658.57224 835.497788 599.642083 629.241214 599.642083 629.241214 629.108185 688.170349 688.037319 688.170349 658.57224 747.100506 658.57224 747.100506 717.502397 717.635427 717.502397 835.496765 835.363735 835.496765 776.433578 894.426923 776.433578Z" p-id="1877" fill="#bfbfbf"></path><path d="M305.121256 304.987203 305.121256 216.590943 216.727043 216.590943Z" p-id="1878" fill="#bfbfbf"></path><path d="M452.448696 128.196731l58.929134 0 0 58.930157-58.929134 0 0-58.930157Z" p-id="1879" fill="#bfbfbf"></path><path d="M629.241214 128.195707 629.241214 393.382439l265.187755 0L894.428969 128.195707 629.241214 128.195707zM835.497788 334.453305l-147.325393 0L688.172395 187.126888l147.325393 0L835.497788 334.453305z" p-id="1880" fill="#bfbfbf"></path><path d="M717.637474 216.591967l88.396259 0 0 88.396259-88.396259 0 0-88.396259Z" p-id="1881" fill="#bfbfbf"></path><path d="M658.706293 570.175981 658.706293 511.245823 717.637474 511.245823 717.637474 452.315666 570.30901 452.315666 570.30901 363.921453 511.379876 363.921453 511.379876 452.315666 452.450742 452.315666 511.379876 511.245823 570.30901 511.245823 570.30901 570.175981Z" p-id="1882" fill="#bfbfbf"></path><path d="M511.379876 304.987203 570.30901 304.987203 570.30901 187.125865 511.379876 187.125865 511.379876 246.057045 452.449719 246.057045 452.449719 363.918383 511.379876 363.918383Z" p-id="1883" fill="#bfbfbf"></path><path d="M835.497788 452.314643 776.567631 452.314643 776.567631 511.245823 717.638497 511.245823 717.638497 570.175981 894.428969 570.175981 894.428969 511.245823 835.499835 511.245823Z" p-id="1884" fill="#bfbfbf"></path></svg>