<?xml version="1.0" standalone="no"?><!DOCTYPE svg PUBLIC "-//W3C//DTD SVG 1.1//EN" "http://www.w3.org/Graphics/SVG/1.1/DTD/svg11.dtd"><svg t="1539066493456" class="icon" style="" viewBox="0 0 1024 1024" version="1.1" xmlns="http://www.w3.org/2000/svg" p-id="241882" xmlns:xlink="http://www.w3.org/1999/xlink" width="200" height="200"><defs><style type="text/css"></style></defs><path d="M262.997333 949.998933C207.6672 1005.329067 48.469333 1046.084267 13.2096 1010.7904c-35.293867-35.293867 5.495467-194.491733 60.757333-249.787733 55.330133-55.330133 131.7888-13.380267 167.1168 21.879466 35.293867 35.328 77.2096 111.8208 21.9136 167.1168z" fill="#8a8a8a" p-id="241883"></path><path d="M1014.0672 31.675733a26.794667 26.794667 0 0 0-21.777067-21.777066C914.0224-3.413333 604.125867-38.229333 442.538667 198.109867l1.365333-3.106134-169.710933-3.2768a21.1968 21.1968 0 0 0-18.670934 9.762134L3.1744 604.672l256.785067 10.615467 148.7872 148.753066 10.581333 256.785067 403.080533-252.416a21.162667 21.162667 0 0 0 9.864534-18.6368l-3.310934-169.745067-3.072 1.3312c236.3392-161.553067 201.557333-471.381333 188.177067-549.6832z m-193.536 314.368c-35.464533 35.5328-96.1536 32.3584-135.543467-7.0656-39.355733-39.355733-42.564267-100.0448-7.133866-135.509333 35.5328-35.498667 96.1536-32.324267 135.645866 7.0656 39.355733 39.389867 42.461867 100.0448 7.031467 135.509333z" fill="#8a8a8a" p-id="241884"></path></svg>