<?xml version="1.0" standalone="no"?><!DOCTYPE svg PUBLIC "-//W3C//DTD SVG 1.1//EN" "http://www.w3.org/Graphics/SVG/1.1/DTD/svg11.dtd"><svg t="1539228938054" class="icon" style="" viewBox="0 0 1024 1024" version="1.1" xmlns="http://www.w3.org/2000/svg" p-id="279280" xmlns:xlink="http://www.w3.org/1999/xlink" width="200" height="200"><defs><style type="text/css"></style></defs><path d="M1008.14516 159.725675 610.584089 558.003349 465.983854 413.19837 863.596111 14.920697C883.558621-5.041814 915.908125-5.041814 935.870636 14.920697L1008.14516 87.348779C1028.158856 107.311289 1028.158856 139.763165 1008.14516 159.725675ZM575.572917 601.8185 369.754318 657.048112 424.932743 450.922396 575.572917 601.8185ZM563.083552 153.532179 103.024468 153.532179 103.024468 921.52578 869.789608 921.52578 869.789608 460.750094C869.789608 432.444278 892.669716 409.512984 920.87316 409.512984 949.12779 409.512984 972.059084 432.444278 972.059084 460.750094L972.059084 921.52578C972.059084 978.086226 926.298868 1023.948814 869.789608 1023.948814L103.024468 1023.948814C46.566394 1023.948814 0.754992 978.086226 0.754992 921.52578L0.857364 921.52578C0.857364 921.167479 0.754992 920.809177 0.754992 920.450876L0.754992 153.532179C0.754992 96.971733 46.566394 51.109145 103.024468 51.109145L563.083552 51.109145C591.338182 51.109145 614.167104 74.040439 614.167104 102.346255 614.167104 130.600885 591.338182 153.532179 563.083552 153.532179Z" p-id="279281" fill="#8a8a8a"></path></svg>