<?xml version="1.0" standalone="no"?><!DOCTYPE svg PUBLIC "-//W3C//DTD SVG 1.1//EN" "http://www.w3.org/Graphics/SVG/1.1/DTD/svg11.dtd"><svg t="1539161009794" class="icon" style="" viewBox="0 0 1024 1024" version="1.1" xmlns="http://www.w3.org/2000/svg" p-id="242620" xmlns:xlink="http://www.w3.org/1999/xlink" width="200" height="200"><defs><style type="text/css"></style></defs><path d="M528.896 171.52c45.568 79.872 100.352 177.152 100.864 178.176 11.264 19.968 30.72 34.304 53.76 38.4 0 0 96.768 18.432 181.248 33.792-60.416 68.096-132.608 146.944-133.632 147.968-15.872 16.896-23.04 40.448-19.968 63.488 0 1.024 12.288 90.112 22.016 171.008-64.512-31.232-137.728-67.072-165.376-80.384l-4.608-2.048c-10.752-5.12-22.528-7.68-34.304-7.68-11.264 0-23.04 2.56-33.28 7.68l-1.536 0.512c-23.552 11.264-102.912 49.152-172.544 81.92 10.24-81.408 22.528-169.984 22.528-171.52 3.072-23.04-4.096-46.592-19.968-64-1.024-1.024-73.728-78.848-134.656-146.944 85.504-15.872 183.808-33.792 183.808-33.792 22.528-4.096 41.984-17.92 53.76-37.888 0.512-1.536 55.808-98.816 101.888-178.688m0.512-124.416c-7.68 0-23.552 6.144-44.032 44.544-49.152 83.456-126.464 220.16-126.464 220.16S217.6 337.92 126.464 354.304C81.92 361.472 67.072 399.36 89.6 426.496c64.512 73.728 178.176 195.584 178.176 195.584s-18.432 134.144-29.184 225.28c-3.584 35.328 15.872 55.296 43.008 55.296 8.704 0 18.432-2.048 28.16-6.656 76.8-36.352 193.024-91.648 219.648-104.448 26.112 12.8 141.312 69.12 217.088 105.472 9.728 4.608 19.456 6.656 28.16 6.656 26.624 0 46.08-19.968 42.496-55.296-10.24-91.648-28.672-225.792-28.672-225.792s112.128-122.368 176.128-196.096c22.528-26.624 8.192-65.024-36.352-72.192-90.112-16.384-230.4-43.008-230.4-43.008s-76.288-136.704-124.928-220.16c-16.896-30.72-30.208-40.96-38.4-43.52-1.024 0-2.56-0.512-5.12-0.512z" fill="#cdcdcd" p-id="242621"></path></svg>