<?xml version="1.0" standalone="no"?><!DOCTYPE svg PUBLIC "-//W3C//DTD SVG 1.1//EN" "http://www.w3.org/Graphics/SVG/1.1/DTD/svg11.dtd"><svg t="1539568854146" class="icon" style="" viewBox="0 0 1536 1024" version="1.1" xmlns="http://www.w3.org/2000/svg" p-id="16458" xmlns:xlink="http://www.w3.org/1999/xlink" width="300" height="200"><defs><style type="text/css"></style></defs><path d="M768 0C343.893333 0 0 342.784 0 512c0 156.586667 343.893333 512 768 512s768-349.013333 768-512c0-162.986667-343.893333-512-768-512z m0 930.986667c-389.376 0-677.632-331.434667-677.632-418.986667 0-98.133333 288.768-418.986667 677.632-418.986667S1445.632 413.866667 1445.632 512c0 98.133333-288.768 418.986667-677.632 418.986667z" fill="#bfbfbf" p-id="16459"></path><path d="M768 170.666667C592.128 170.666667 449.024 318.293333 449.024 499.797333c0 181.504 143.104 329.130667 318.976 329.130667s318.976-147.626667 318.976-329.130667C1086.976 318.293333 943.872 170.666667 768 170.666667z m0 564.224c-125.610667 0-227.84-105.472-227.84-235.093334S642.389333 264.704 768 264.704s227.84 105.472 227.84 235.093333c0 129.706667-102.229333 235.093333-227.84 235.093334z" fill="#bfbfbf" p-id="16460"></path><path d="M779.776 292.608c-104.192 0-189.013333 87.466667-189.013333 194.986667 0 26.965333 21.162667 48.810667 47.274666 48.810666a48.042667 48.042667 0 0 0 47.274667-48.810666c0-53.76 42.410667-97.536 94.464-97.536A48.042667 48.042667 0 0 0 827.050667 341.333333a48.042667 48.042667 0 0 0-47.274667-48.725333z" fill="#bfbfbf" p-id="16461"></path></svg>