<?xml version="1.0" standalone="no"?><!DOCTYPE svg PUBLIC "-//W3C//DTD SVG 1.1//EN" "http://www.w3.org/Graphics/SVG/1.1/DTD/svg11.dtd"><svg t="1536223195029" class="icon" style="" viewBox="0 0 1024 1024" version="1.1" xmlns="http://www.w3.org/2000/svg" p-id="14754" xmlns:xlink="http://www.w3.org/1999/xlink" width="200" height="200"><defs><style type="text/css"></style></defs><path d="M1010.467503 945.883596l-133.192857-132.388288a290.669091 290.669091 0 0 0 60.489013-176.420193c0-90.623806-42.203338-170.715063-107.154056-224.840661V45.716382A45.714188 45.714188 0 0 0 784.895415 0.002194H45.715285A45.714188 45.714188 0 0 0 0.001097 45.716382v645.850045c0 25.234232 20.479956 45.714188 45.714188 45.714187H363.520318c2.121138 5.705131 3.657135 11.702832 6.070844 17.261678v14.043398c-36.132494 13.385114-64.73129 41.691339-78.262689 77.750691H45.788428a45.714188 45.714188 0 1 0 0 91.428375h245.68633A132.388288 132.388288 0 0 0 415.30535 1024a132.388288 132.388288 0 0 0 130.340292-109.348337c30.134793 10.313121 61.951867 17.115392 95.59751 17.115392a295.49651 295.49651 0 0 0 170.568777-54.345027l134.289998 133.266001a45.567902 45.567902 0 0 0 64.585004-0.219429 45.714188 45.714188 0 0 0-0.219428-64.585004zM641.243152 342.310032c-82.651251 0-157.256806 33.86507-211.089834 88.210097H91.429473V306.689537h647.751754v53.540457a294.618797 294.618797 0 0 0-98.011218-17.846819zM91.429473 91.43057h647.751754v123.830592H91.429473V91.43057z m0 554.421669V522.021647h276.845121a291.400518 291.400518 0 0 0-23.625093 115.053468c0 2.925708 0.80457 5.778273 0.950856 8.777124H91.429473z m323.875877 286.719385c-22.674237 0-41.17934-18.212532-41.17934-40.521056s18.505103-40.594199 41.17934-40.594198 41.17934 18.285675 41.17934 40.594198-18.431961 40.521056-41.17934 40.521056z m20.772527-295.496509c0-112.12776 92.013517-203.336707 205.165275-203.336707s205.092132 91.208947 205.092132 203.336707-92.013517 203.336707-205.092132 203.336707-205.165275-91.208947-205.165275-203.336707z" fill="#9A9A9A" p-id="14755"></path></svg>