<?xml version="1.0" standalone="no"?><!DOCTYPE svg PUBLIC "-//W3C//DTD SVG 1.1//EN" "http://www.w3.org/Graphics/SVG/1.1/DTD/svg11.dtd"><svg t="1537363564533" class="icon" style="" viewBox="0 0 1024 1024" version="1.1" xmlns="http://www.w3.org/2000/svg" p-id="202463" xmlns:xlink="http://www.w3.org/1999/xlink" width="200" height="200"><defs><style type="text/css"></style></defs><path d="M276.686869 399.07131l708.602442 0 0 462.907282-708.602442 0 0-462.907282Z" fill="#FFCE00" p-id="202464"></path><path d="M867.497663 499.263682a29.486507 29.486507 0 0 0 20.686869-8.490879 28.17428 28.17428 0 0 0 8.490879-19.992161V372.440826a28.17428 28.17428 0 0 0-8.413689-20.06935l-0.926278-1.003468a29.718076 29.718076 0 0 0-19.837781-7.71898h-216.131464c-36.742349 0-58.201116-13.816976-70.937434-37.051109-10.652194-19.451832-12.736318-43.226293-12.736318-70.011156V87.919192a29.563697 29.563697 0 0 0-8.568069-20.841248l-0.926278-1.003468a28.714609 28.714609 0 0 0-19.297452-7.718981H455.458465a28.791799 28.791799 0 0 0-20.300919 8.490879 29.486507 29.486507 0 0 0-8.568069 20.841248v148.976331c0 26.784864-2.084125 50.636514-12.736319 70.011156-12.736318 23.156943-34.195085 37.051108-70.937434 37.051108h-216.131463a29.640886 29.640886 0 0 0-20.841249 8.3365 28.17428 28.17428 0 0 0-8.413689 20.06935V470.857832a28.09709 28.09709 0 0 0 8.490879 19.99216 29.486507 29.486507 0 0 0 20.686869 8.490879z m-596.44565 315.783506c0-10.806573 12.659129-19.529022 28.328659-19.529021s28.32866 8.722448 28.32866 19.529021v150.442937H468.580733v-204.552992a28.40585 28.40585 0 0 1 56.657319 0v204.475802H666.186643v-150.365747c0-10.806573 12.659129-19.529022 28.328659-19.529021s28.32866 8.722448 28.32866 19.529021v150.442937h150.365747c-30.412785-77.730137-30.412785-191.585105-30.412785-191.893864V555.766621H151.09905v217.675261s0 114.240917-30.412784 191.893864h150.365747v-150.288558z m628.325041-265.301372v223.850445s0 111.307704 28.868989 177.53656l0.385949 0.849088 0.463138 1.003467 0.617519 1.312227a64.067541 64.067541 0 0 1 7.718981 27.479572c0 22.230665-10.729383 40.21589-48.861149 40.21589H105.402684c-38.054576 0-48.783959-17.985225-48.783959-40.21589a64.067541 64.067541 0 0 1 7.71898-27.479572l0.617519-1.312227 0.463139-1.003467 0.385949-0.849088c28.868988-66.228856 28.868988-177.53656 28.868988-177.53656v-223.850445a86.761345 86.761345 0 0 1-28.637419-18.679933A84.908789 84.908789 0 0 1 40.563244 470.857832V372.440826a84.908789 84.908789 0 0 1 25.241068-60.36243 85.835067 85.835067 0 0 1 60.51681-24.777929h216.131464c12.504749 0 18.834313-2.856023 21.458766-7.71898 4.708578-8.645259 5.634856-24.2376 5.634856-42.840344V87.919192a86.066637 86.066637 0 0 1 24.932309-60.594A84.908789 84.908789 0 0 1 455.458465 1.929745h83.133424a84.908789 84.908789 0 0 1 58.587065 23.620082l1.929745 1.775365a86.066637 86.066637 0 0 1 24.932308 60.594v148.97633c0 18.602744 0.926278 34.195085 5.634856 42.840344 2.624453 4.785768 8.876828 7.718981 21.458767 7.718981h216.131464a85.835067 85.835067 0 0 1 58.818634 23.156943l1.698176 1.620986a84.908789 84.908789 0 0 1 25.241067 60.36243V470.857832a84.908789 84.908789 0 0 1-25.472637 60.208051 86.529775 86.529775 0 0 1-28.405849 18.679933z m0 0" fill="" p-id="202465"></path></svg>