<?xml version="1.0" standalone="no"?><!DOCTYPE svg PUBLIC "-//W3C//DTD SVG 1.1//EN" "http://www.w3.org/Graphics/SVG/1.1/DTD/svg11.dtd"><svg t="1538017428836" class="icon" style="" viewBox="0 0 1024 1024" version="1.1" xmlns="http://www.w3.org/2000/svg" p-id="266333" xmlns:xlink="http://www.w3.org/1999/xlink" width="200" height="200"><defs><style type="text/css"></style></defs><path d="M188.6 588.6L0 588.1v30.6l193.9-18.3c-1.9-3.9-3.6-7.8-5.3-11.8z m14.1 28.6L0 646.1v285.8c0 50.6 41 91.6 91.7 91.6h298.1l-3.4-142.6S306.6 904 262.3 872s-43.6-72.2-70.9-97.4c-27.4-25.2-36.8-42.6-62.1-48.7 20.5-16.2 54.3-27 88.7 4.4 34.4 31.4 46.6 70.2 79.8 79.7 33.2 9.5 79.4-1.2 93.1-8.9 0.6-39.1 39.9-62 39.9-62s-116.9-8.5-190.6-75.3c-15.3-13.7-27.6-29.6-37.5-46.6zM932.3 0.5H91.7C41 0.5 0 41.5 0 92.1v477.2l182.1 1.7c-18-54.7-18.1-112.8-12.9-150.6 8.4-61.5 57.6-110.7 57.6-110.7s-38.1-78.6 8.9-155c86.7 3.6 150.7 66.4 150.7 66.4s29.2-22.1 133-22.1 137.4 17.7 137.4 17.7 43.6-58.2 137.4-57.6c44.1 64.5 17.7 141.7 17.7 141.7s64 47.5 66.5 132.9c1.4 46.5-2.3 94.9-12.6 137.3l158.2-2.3V92.1c0-50.6-41-91.6-91.7-91.6z m-75.8 602l167.5 18.4v-32.3l-163 0.2c-1.4 4.6-2.9 9.2-4.5 13.7z m-31.3 57c-41.4 48.7-157.2 75.2-195 79.7 73.4 8.3 55.8 241.8 52 284.3h250.1c50.6 0 91.7-41 91.7-91.6V645.4l-174.5-25.8c-6.7 15.1-14.7 28.7-24.3 39.9z" p-id="266334" fill="#bfbfbf"></path></svg>