<?xml version="1.0" standalone="no"?><!DOCTYPE svg PUBLIC "-//W3C//DTD SVG 1.1//EN" "http://www.w3.org/Graphics/SVG/1.1/DTD/svg11.dtd"><svg t="1538988865522" class="icon" style="" viewBox="0 0 1024 1024" version="1.1" xmlns="http://www.w3.org/2000/svg" p-id="14761" xmlns:xlink="http://www.w3.org/1999/xlink" width="200" height="200"><defs><style type="text/css"></style></defs><path d="M973.815017 950.72616H50.182936c-25.399483 0-46.181809-20.782326-46.181809-46.181809V558.180785L121.764228 109.063975c5.773494-19.628036 30.016641-35.791158 55.419194-35.791158h669.635203c25.399483 0 50.801013 16.163121 55.416124 35.791158l117.764124 449.11681V904.544351c0 25.399483-20.783349 46.181809-46.182832 46.181809h-0.001024z m-48.49141-450.270077L849.123111 179.494047c-5.773494-20.783349-31.171953-36.945447-56.570414-36.945447H217.590713c-25.399483 0-49.6457 16.163121-55.416123 36.945447L85.975117 500.456083c-8.081049 31.171953 11.543917 57.724703 45.027519 57.724702h178.952718l53.108569 144.317897c3.462868 9.235338 16.164145 17.318434 27.708062 17.318434h228.601488c12.700253 0 25.400506-6.92676 27.709085-17.318434l53.108568-144.317897h177.799452c34.638915 0 55.416124-26.553773 47.336099-57.724702h-0.00307z" fill="#8a8a8a" p-id="14762"></path></svg>