<?xml version="1.0" standalone="no"?><!DOCTYPE svg PUBLIC "-//W3C//DTD SVG 1.1//EN" "http://www.w3.org/Graphics/SVG/1.1/DTD/svg11.dtd"><svg t="1539065790813" class="icon" style="" viewBox="0 0 1024 1024" version="1.1" xmlns="http://www.w3.org/2000/svg" p-id="234219" xmlns:xlink="http://www.w3.org/1999/xlink" width="200" height="200"><defs><style type="text/css"></style></defs><path d="M482.81 480.68H177.43A112.41 112.41 0 0 1 65.14 368.39V175.3A112.41 112.41 0 0 1 177.43 63h193.1a112.41 112.41 0 0 1 112.28 112.3z" fill="#7E7E7E" p-id="234220"></path><path d="M847 480.68H539.68V175.3A112.41 112.41 0 0 1 652 63h195a112.41 112.41 0 0 1 112.33 112.3v193.1A112.41 112.41 0 0 1 847 480.68" fill="#C6C6C6" p-id="234221"></path><path d="M370.52 957.2H177.43A112.41 112.41 0 0 1 65.14 844.92V649.83a112.41 112.41 0 0 1 112.29-112.28h305.38v307.37A112.41 112.41 0 0 1 370.52 957.2M652 957.2a112.41 112.41 0 0 1-112.32-112.28V537.55H847a112.41 112.41 0 0 1 112.33 112.28v195.09A112.41 112.41 0 0 1 847 957.2z" fill="#7E7E7E" p-id="234222"></path></svg>