<?xml version="1.0" standalone="no"?><!DOCTYPE svg PUBLIC "-//W3C//DTD SVG 1.1//EN" "http://www.w3.org/Graphics/SVG/1.1/DTD/svg11.dtd"><svg t="1536643233632" class="icon" style="" viewBox="0 0 1024 1024" version="1.1" xmlns="http://www.w3.org/2000/svg" p-id="90603" xmlns:xlink="http://www.w3.org/1999/xlink" width="200" height="200"><defs><style type="text/css"></style></defs><path d="M775 1003.7H85c-11 0-19.8-8.9-19.8-19.8v-63.4c0-11 8.9-19.8 19.8-19.8h690c11 0 19.8 8.9 19.8 19.8v63.4c0.1 10.9-8.8 19.8-19.8 19.8zM989.2 1003.7H846.4c-11 0-19.8-8.9-19.8-19.8v-63.4c0-11 8.9-19.8 19.8-19.8h142.8c11 0 19.8 8.9 19.8 19.8v63.4c0 10.9-8.9 19.8-19.8 19.8z" fill="#A7CF49" p-id="90604"></path><path d="M663.2 378.2L361.9 187l55.3-87c30.5-48.1 94.2-62.3 142.3-31.8L686.7 149c48.1 30.5 62.3 94.2 31.8 142.3l-55.3 86.9z" fill="#FCDC74" p-id="90605"></path><path d="M345.494 208.341l301.33 191.263L340.825 881.7 39.495 690.437zM23.7 712.1S-8.8 959.5 58 996.9s266.3-94 266.3-94L23.7 712.1z" fill="#FD9E1C" p-id="90606"></path><path d="M19.4 906.7c5.1 42.1 16.3 77.8 38.6 90.3 21.4 12 56.3 6.7 94-6.1L19.4 906.7z" fill="#A7CF49" p-id="90607"></path><path d="M184.2 20.3h63.5l55.5 103.1h-63.5z" fill="#FD643A" p-id="90608"></path><path d="M152.483 401.006l47.552-39.629 39.628 47.552-47.551 39.628z" fill="#FEDD6D" p-id="90609"></path><path d="M652.1 440.6h31.7l15.9 39.7H668z" fill="#FD9E1C" p-id="90610"></path></svg>