<?xml version="1.0" standalone="no"?><!DOCTYPE svg PUBLIC "-//W3C//DTD SVG 1.1//EN" "http://www.w3.org/Graphics/SVG/1.1/DTD/svg11.dtd"><svg t="1536643577402" class="icon" style="" viewBox="0 0 1024 1024" version="1.1" xmlns="http://www.w3.org/2000/svg" p-id="136040" xmlns:xlink="http://www.w3.org/1999/xlink" width="200" height="200"><defs><style type="text/css"></style></defs><path d="M398.9 751.1l-100.7-25.3-25.3-100.7 265.8-265.8 126 126z" fill="#FFC44F" p-id="136041"></path><path d="M272.9 625.1L137 564.6l303.5-303.5 98.2 98.2zM459.4 887l-60.5-135.9 265.8-265.8 98.2 98.2z" fill="#FFC44F" p-id="136042"></path><path d="M119.3 758.8v145.9h145.9c0-80.6-65.3-145.9-145.9-145.9z" fill="#3FA9F5" p-id="136043"></path><path d="M906.6 369.3L654.7 117.4c-28.5-28.5-75-28.6-103.6 0L407.5 261.1 96 572.6V928h355.4l0.5-0.5 311-311 9.7-9.7 23.3-23.3 110.7-110.7c28.5-28.5 28.5-75 0-103.5zM466.9 846.5l-40.2-90.3 237.9-237.9 65.2 65.2-262.9 263zM317.4 706.6l-18.6-74.3 239.9-239.9 46.6 46.6 46.3 46.3-239.9 239.9-74.3-18.6zM177.5 557.1l263-263 65.2 65.2-237.9 238-90.3-40.2z m-34.8 324.2v-96.9c48.9 9.4 87.5 48.1 97 96.9h-97z m144.2 0c-10.4-74.7-69.6-133.9-144.3-144.3V592.7L253 641.8l25.9 103.3L382.2 771l49.1 110.4H286.9z m586.7-441.5L762.9 550.5l-98.2-98.3-46.5-46.5-144.7-144.6 110.7-110.7c10.3-10.3 27.2-10.4 37.5 0l251.9 251.9c10.3 10.3 10.3 27.2 0 37.5z" fill="#2B2E54" p-id="136044"></path></svg>