<?xml version="1.0" standalone="no"?><!DOCTYPE svg PUBLIC "-//W3C//DTD SVG 1.1//EN" "http://www.w3.org/Graphics/SVG/1.1/DTD/svg11.dtd"><svg t="1539227539129" class="icon" style="" viewBox="0 0 1024 1024" version="1.1" xmlns="http://www.w3.org/2000/svg" p-id="247992" xmlns:xlink="http://www.w3.org/1999/xlink" width="200" height="200"><defs><style type="text/css"></style></defs><path d="M1012.224 844.245333L560.810667 114.901333c-23.594667-39.424-74.88-39.424-98.517334 0L10.922667 844.245333c-27.562667 45.354667 0 108.416 49.28 108.416H962.986667c49.28 0 78.805333-63.061333 49.28-108.373333zM511.573333 794.965333c-33.493333 0-59.136-25.6-59.136-59.136 0-33.493333 25.6-59.136 59.136-59.136 33.493333 0 59.136 25.6 59.136 59.136 0 33.536-25.6 59.136-59.136 59.136z m59.136-177.408c0 11.818667-7.893333 19.712-19.712 19.712h-78.848c-11.818667 0-19.712-7.893333-19.712-19.712V361.301333c0-11.818667 7.893333-19.712 19.712-19.712h78.848c11.818667 0 19.712 7.893333 19.712 19.712v256.256z" fill="#FFCF66" p-id="247993"></path></svg>