<?xml version="1.0" standalone="no"?><!DOCTYPE svg PUBLIC "-//W3C//DTD SVG 1.1//EN" "http://www.w3.org/Graphics/SVG/1.1/DTD/svg11.dtd"><svg t="1539063610799" class="icon" style="" viewBox="0 0 1024 1024" version="1.1" xmlns="http://www.w3.org/2000/svg" p-id="218755" xmlns:xlink="http://www.w3.org/1999/xlink" width="200" height="200"><defs><style type="text/css"></style></defs><path d="M493.2096 772.6592a277.3504 277.3504 0 1 1 0-554.7008 277.3504 277.3504 0 0 1 0 554.7008m493.2096-415.232a509.696 509.696 0 0 0-48.2816-116.992 169.6768 169.6768 0 0 1-144.5888-47.5648A169.6768 169.6768 0 0 1 745.984 48.2816 509.696 509.696 0 0 0 628.992 0a169.5744 169.5744 0 0 1-135.7824 68.4544A169.5744 169.5744 0 0 1 357.4272 0a509.696 509.696 0 0 0-116.992 48.2816 169.6768 169.6768 0 0 1-47.5648 144.5888 169.6768 169.6768 0 0 1-144.5888 47.616A509.696 509.696 0 0 0 0 357.376a169.5744 169.5744 0 0 1 68.4544 135.7824c0 55.7056-27.136 104.704-68.4544 135.7824 11.3664 41.3184 27.5456 80.5376 48.2816 116.992a169.6768 169.6768 0 0 1 144.5888 47.616 169.6768 169.6768 0 0 1 47.616 144.5376 509.696 509.696 0 0 0 116.9408 48.2816 169.5744 169.5744 0 0 1 135.7824-68.4544c55.7056 0 104.704 27.136 135.7824 68.4544a509.696 509.696 0 0 0 116.992-48.2816 169.6768 169.6768 0 0 1 47.616-144.5888 169.6768 169.6768 0 0 1 144.5376-47.5648 509.696 509.696 0 0 0 48.2816-116.992 169.5744 169.5744 0 0 1-68.4544-135.7824c0-55.7056 27.136-104.704 68.4544-135.7824" p-id="218756" fill="#8a8a8a"></path></svg>