<?xml version="1.0" standalone="no"?><!DOCTYPE svg PUBLIC "-//W3C//DTD SVG 1.1//EN" "http://www.w3.org/Graphics/SVG/1.1/DTD/svg11.dtd"><svg t="1539162068014" class="icon" style="" viewBox="0 0 1024 1024" version="1.1" xmlns="http://www.w3.org/2000/svg" p-id="245249" xmlns:xlink="http://www.w3.org/1999/xlink" width="200" height="200"><defs><style type="text/css"></style></defs><path d="M517.576704 7.821312c-136.204288 0-264.024064 45.379584-359.913472 127.778816C61.935616 217.860096 9.216 327.28064 9.216 443.705344c0 127.889408 48.848896 251.439104 145.190912 367.218688 76.077056 91.428864 166.418432 158.959616 228.907008 199.569408 5.842944 2.922496 11.360256 5.6832 14.39744 5.6832 8.491008 0 17.145856-5.380096 23.238656-14.55104l52.697088-122.036224h41.140224c275.697664 0 499.996672-195.536896 499.996672-435.884032S791.738368 7.821312 517.576704 7.821312z m0 819.542016l-22.24128 0.002048-50.884608-2.82624-55.535616 124.950528-26.830848-18.784256C224.933888 827.840512 61.442048 659.849216 61.442048 443.705344c0-99.047424 46.401536-193.810432 130.660352-266.83392 86.499328-75.33568 202.088448-116.824064 325.472256-116.824064 248.438784 0 450.557952 172.107776 450.557952 383.657984S766.01344 827.363328 517.576704 827.363328z" p-id="245250" fill="#bfbfbf"></path><path d="M258.33472 389.718016c-31.307776 0-56.776704 25.470976-56.776704 56.776704 0 31.30368 25.470976 56.772608 56.776704 56.772608s56.774656-25.468928 56.774656-56.772608c-0.002048-31.307776-25.470976-56.776704-56.774656-56.776704zM540.391424 397.320192c-8.620032-4.978688-18.438144-7.60832-28.391424-7.60832s-19.771392 2.63168-28.389376 7.60832c-17.512448 10.10688-28.387328 28.94848-28.381184 49.17248-0.004096 20.219904 10.870784 39.061504 28.381184 49.174528 8.617984 4.97664 18.436096 7.60832 28.389376 7.60832s19.771392-2.63168 28.391424-7.60832c17.5104-10.110976 28.38528-28.952576 28.38528-49.174528 0.002048-20.224-10.87488-39.0656-28.38528-49.17248zM765.669376 389.718016c-31.305728 0-56.776704 25.470976-56.776704 56.776704 0 20.215808 10.876928 39.05536 28.38528 49.168384 8.620032 4.974592 18.436096 7.604224 28.387328 7.604224s19.767296-2.629632 28.387328-7.604224c17.5104-10.110976 28.38528-28.950528 28.38528-49.168384 0.004096-31.307776-25.464832-56.776704-56.768512-56.776704z" p-id="245251" fill="#bfbfbf"></path></svg>