<?xml version="1.0" standalone="no"?><!DOCTYPE svg PUBLIC "-//W3C//DTD SVG 1.1//EN" "http://www.w3.org/Graphics/SVG/1.1/DTD/svg11.dtd"><svg t="1536640664010" class="icon" style="" viewBox="0 0 1024 1024" version="1.1" xmlns="http://www.w3.org/2000/svg" p-id="29373" xmlns:xlink="http://www.w3.org/1999/xlink" width="200" height="200"><defs><style type="text/css"></style></defs><path d="M512 85.4c235.2 0 426.6 191.4 426.6 426.6 0 235.3-191.4 426.6-426.6 426.6S85.4 747.3 85.4 512 276.8 85.4 512 85.4M512 0C229.2 0 0 229.2 0 512s229.2 512 512 512 512-229.2 512-512S794.8 0 512 0z" p-id="29374" fill="#008FFE"></path><path d="M488.8 273.6c0 33.3 27 60.2 60.2 60.2 33.3 0 60.2-27 60.2-60.2 0-33.3-27-60.2-60.2-60.2-33.3 0-60.2 27-60.2 60.2zM531.6 828c-44.4 11.1-105.9 10.1-136.6-2.2-30.7-12.3-41.9-57.2-24.9-99.7l76.6-190.9c17.1-42.5-5.1-87.3-49.2-99.5l-14.6-4.1c-44.1-12.2-43.2-28.3 1.9-35.6l43.9-7.1c45.2-7.4 107.3-3.3 138 9 30.7 12.3 41.8 57.2 24.7 99.6L520 674.4c-17.2 42.5 4.3 87.9 47.7 101 43.4 13.1 42.5 32.9-1.9 44l-34.2 8.6z m0 0" p-id="29375" fill="#008FFE"></path></svg>