<?xml version="1.0" standalone="no"?><!DOCTYPE svg PUBLIC "-//W3C//DTD SVG 1.1//EN" "http://www.w3.org/Graphics/SVG/1.1/DTD/svg11.dtd"><svg t="1539161969026" class="icon" style="" viewBox="0 0 1024 1024" version="1.1" xmlns="http://www.w3.org/2000/svg" p-id="243574" xmlns:xlink="http://www.w3.org/1999/xlink" width="200" height="200"><defs><style type="text/css"></style></defs><path d="M914.05824 875.18208c0 58.01984-47.05792 105.07776-105.09824 105.07776H388.57728c-0.128 0-0.26112-0.03072-0.41984-0.03072H257.8432c-0.21504 0-0.43008 0.03072-0.65024 0.03072H73.28768V402.24768h183.90528c3.29216 0 6.43072 0.62976 9.63584 0.94208 32.83456-94.592 79.12448-225.67424 97.9968-268.96896 29.58848-68.0192 55.38816-90.11712 102.54848-99.84 46.90432-9.63584 194.9952 59.17184 149.11488 241.59744-4.72064 18.80064-11.42784 45.568-18.46784 73.71776h289.76128c58.03008 0 78.81216 47.04768 78.81216 105.12384l-52.53632 420.36224zM230.93248 454.80448H126.60224l-0.77312-0.03584v472.9856h105.10336v-0.07168h26.2656V460.03712l1.00864-4.48c0.24064-0.64512-0.25088 0.65024 0 0-5.39136-1.8176-21.28896-0.75264-27.27424-0.75264z m630.54848-52.5568h-328.40192l39.38816-157.67552c22.03136-96.93184-57.26208-155.21792-78.7968-157.63968-15.0784-1.67936-57.94816 6.00576-78.83776 52.57216-13.63968 30.44864-73.96864 197.67296-105.68192 286.1056 0.10752 0.99328 0.57856 1.85856 0.57856 2.88768v499.18464H414.8224v0.07168h394.10176c29.00992 0 52.55168-23.552 52.55168-52.5824l52.56192-420.36736c0.02048-29.04576-23.53664-52.5568-52.5568-52.5568z" fill="#bfbfbf" p-id="243575"></path></svg>