<?xml version="1.0" standalone="no"?><!DOCTYPE svg PUBLIC "-//W3C//DTD SVG 1.1//EN" "http://www.w3.org/Graphics/SVG/1.1/DTD/svg11.dtd"><svg t="1536644020560" class="icon" style="" viewBox="0 0 1091 1024" version="1.1" xmlns="http://www.w3.org/2000/svg" p-id="170500" xmlns:xlink="http://www.w3.org/1999/xlink" width="213.0859375" height="200"><defs><style type="text/css"></style></defs><path d="M899.841429 963.914048H434.356281a28.957085 28.957085 0 0 0 0 57.914171h463.313366a28.957085 28.957085 0 1 0 0-57.914171zM1080.823213 186.416305A275.816238 275.816238 0 0 0 805.730901 0.367031a449.558751 449.558751 0 0 0-164.331459 31.128867 596.515959 596.515959 0 0 0-144.785427 77.460203c0-5.06749 0-7.239271-5.06749-12.306761a72.392714 72.392714 0 0 0-31.128867-40.53992 90.490892 90.490892 0 0 0-50.6749 0A443.767334 443.767334 0 0 0 196.908181 246.502257c-7.239271 12.306761-12.306761 19.546033-16.650324 28.957085A55.742389 55.742389 0 0 0 144.785427 266.04829a72.392714 72.392714 0 0 0-60.085952 31.128866C0 425.312259-36.920284 647.55789 49.950972 792.343317l14.478543 14.478542a212.110651 212.110651 0 0 0-55.742389 195.460327 31.128867 31.128867 0 0 0 26.785304 21.717814h229.484901a28.957085 28.957085 0 1 0 0-57.914171H64.429515a164.33146 164.33146 0 0 1 48.503118-120.895831s5.06749 5.06749 7.239271 5.06749a361.963568 361.963568 0 0 0 120.171905 18.822105 620.405555 620.405555 0 0 0 289.570854-72.392713 72.392714 72.392714 0 0 0 36.196357-41.263847 61.533806 61.533806 0 0 0-7.239272-52.846681v-5.06749c154.19648-28.957085 209.938869-128.135103 263.509477-222.24563l7.239272-9.411053a325.767211 325.767211 0 0 1 207.767088-183.153565h7.239271A72.392714 72.392714 0 0 0 1085.890703 188.588086z" fill="#58BCB2" p-id="170501"></path><path d="M434.356281 664.208214a34.748502 34.748502 0 0 0 16.650324 34.024575 289.570854 289.570854 0 0 0 45.60741 19.546033c5.06749 0 9.411053 0 14.478542 5.06749l7.239272 7.239271v9.411053h-7.239272a566.11102 566.11102 0 0 1-256.270205 65.153442A295.362271 295.362271 0 0 1 156.368261 796.68688s-5.06749-5.06749-7.239271-5.06749H144.785427c43.435628-118.000123 224.417412-482.859399 755.779929-564.663166a31.852794 31.852794 0 0 0 23.889595-34.024575 31.852794 31.852794 0 0 0-34.024575-23.889595c-524.123246 81.803766-723.927135 427.11701-789.804504 586.380979C32.576721 622.944367 72.392714 441.962583 144.785427 326.134242c0-5.06749 7.239271-5.06749 12.306761 0v16.650324a8.687126 8.687126 0 0 0 0 5.06749 34.024575 34.024575 0 0 0 28.957086 21.717814 56.466317 56.466317 0 0 0 31.128867-18.822106A312.012595 312.012595 0 0 1 240.343809 289.937885a48.503118 48.503118 0 0 1 9.411053-19.546033 370.650693 370.650693 0 0 1 178.810002-163.607532h12.306761v12.306761a165.055387 165.055387 0 0 0-21.717814 52.846681 33.300648 33.300648 0 0 0 0 21.717814 24.613523 24.613523 0 0 0 15.20247 16.650324 23.889595 23.889595 0 0 0 36.196357 0 671.080454 671.080454 0 0 1 199.803889-123.067613 449.558751 449.558751 0 0 1 144.785427-26.785304 217.178141 217.178141 0 0 1 217.178141 144.785427c0 9.411053 0 9.411053-7.239272 9.411053a399.607779 399.607779 0 0 0-241.067736 207.767088l-5.06749 14.478542c-62.981661 113.65656-113.65656 202.699598-314.184376 202.699598a34.024575 34.024575 0 0 0-28.957086 21.717814z" fill="#83E2D6" p-id="170502"></path></svg>