<?xml version="1.0" standalone="no"?><!DOCTYPE svg PUBLIC "-//W3C//DTD SVG 1.1//EN" "http://www.w3.org/Graphics/SVG/1.1/DTD/svg11.dtd"><svg t="1537864588223" class="icon" style="" viewBox="0 0 1024 1024" version="1.1" xmlns="http://www.w3.org/2000/svg" p-id="207325" xmlns:xlink="http://www.w3.org/1999/xlink" width="200" height="200"><defs><style type="text/css"></style></defs><path d="M844.4 927H180c-37.3 0-67.6-30.3-67.6-67.5V471c0-37.3 30.3-67.6 67.6-67.6h664.4c37.3 0 67.6 30.3 67.6 67.6v388.5c0 37.2-30.3 67.5-67.6 67.5z m-641.8-90.1h619.3V493.5H202.6v343.4z" fill="#ffffff" p-id="207326"></path><path d="M798.3 475.8h-90.1v-92.2c0-108.1-87.9-196-196-196s-196 87.9-196 196v92.2h-90.1v-92.2c0-157.7 128.3-286.1 286.1-286.1s286.1 128.3 286.1 286.1v92.2z" fill="#ffffff" p-id="207327"></path><path d="M586.9 637.2c0-41.1-33.6-74.7-74.7-74.7s-74.7 33.6-74.7 74.7c0 27.4 15.2 51.3 37.3 64.2v29.1c0 20.5 16.8 37.3 37.3 37.3 20.5 0 37.3-16.8 37.3-37.3v-29.1c22.4-12.9 37.5-36.8 37.5-64.2z" fill="#ffffff" p-id="207328"></path></svg>