<?xml version="1.0" standalone="no"?><!DOCTYPE svg PUBLIC "-//W3C//DTD SVG 1.1//EN" "http://www.w3.org/Graphics/SVG/1.1/DTD/svg11.dtd"><svg t="1539393696288" class="icon" style="" viewBox="0 0 1024 1024" version="1.1" xmlns="http://www.w3.org/2000/svg" p-id="3060" xmlns:xlink="http://www.w3.org/1999/xlink" width="200" height="200"><defs><style type="text/css"></style></defs><path d="M512 0a512 512 0 1 0 512 512A512 512 0 0 0 512 0z m0 945.230769a433.230769 433.230769 0 1 1 433.230769-433.230769 433.230769 433.230769 0 0 1-433.230769 433.230769z m0-196.923077a39.384615 39.384615 0 0 0-39.384615 39.384616 39.384615 39.384615 0 0 0 11.815384 28.356923 39.384615 39.384615 0 0 0 27.569231 11.027692 39.384615 39.384615 0 0 0 27.963077-11.421538A39.384615 39.384615 0 0 0 551.384615 787.692308a39.384615 39.384615 0 0 0-11.027692-27.963077A39.384615 39.384615 0 0 0 512 748.307692z m5.907692-512a149.267692 149.267692 0 0 0-120.910769 53.563077A226.855385 226.855385 0 0 0 354.461538 433.230769h66.166154a146.510769 146.510769 0 0 1 23.236923-87.433846 74.830769 74.830769 0 0 1 71.286154-39.384615 72.861538 72.861538 0 0 1 62.621539 28.356923 78.769231 78.769231 0 0 1 26.387692 62.227692 118.153846 118.153846 0 0 1-23.236923 64.196923c-6.695385 8.664615-14.966154 18.510769-24.418462 29.144616a311.532308 311.532308 0 0 0-72.861538 94.12923 163.446154 163.446154 0 0 0-13.784615 69.316923v15.753847h75.618461v-15.753847a121.698462 121.698462 0 0 1 13.784615-59.076923A144.935385 144.935385 0 0 1 590.769231 551.384615a481.673846 481.673846 0 0 0 54.350769-62.621538 172.504615 172.504615 0 0 0 27.963077-94.916923A157.538462 157.538462 0 0 0 630.153846 278.843077 144.541538 144.541538 0 0 0 517.907692 236.307692z" fill="#9D9D9D" p-id="3061"></path></svg>